<mxfile host="app.diagrams.net" modified="2023-10-26T07:07:06.858Z" agent="Mozilla/5.0 (Windows NT 10.0; Win64; x64) AppleWebKit/537.36 (KHTML, like Gecko) Chrome/118.0.0.0 Safari/537.36" etag="pnSH-3U0odFE0rPW6AFy" version="22.0.7" type="google">
  <diagram id="C5RBs43oDa-KdzZeNtuy" name="Page-1">
    <mxGraphModel grid="1" page="1" gridSize="10" guides="1" tooltips="1" connect="1" arrows="1" fold="1" pageScale="1" pageWidth="1200" pageHeight="1920" math="0" shadow="0">
      <root>
        <mxCell id="WIyWlLk6GJQsqaUBKTNV-0" />
        <mxCell id="WIyWlLk6GJQsqaUBKTNV-1" parent="WIyWlLk6GJQsqaUBKTNV-0" />
        <mxCell id="hfUMV4JjxT8LaMkukJHo-2" value="" style="edgeStyle=orthogonalEdgeStyle;rounded=0;orthogonalLoop=1;jettySize=auto;html=1;" edge="1" parent="WIyWlLk6GJQsqaUBKTNV-1" source="hfUMV4JjxT8LaMkukJHo-0" target="hfUMV4JjxT8LaMkukJHo-1">
          <mxGeometry relative="1" as="geometry" />
        </mxCell>
        <mxCell id="hfUMV4JjxT8LaMkukJHo-0" value="로그인" style="ellipse;whiteSpace=wrap;html=1;" vertex="1" parent="WIyWlLk6GJQsqaUBKTNV-1">
          <mxGeometry x="690" y="-60" width="120" height="80" as="geometry" />
        </mxCell>
        <mxCell id="hfUMV4JjxT8LaMkukJHo-4" style="edgeStyle=orthogonalEdgeStyle;rounded=0;orthogonalLoop=1;jettySize=auto;html=1;entryX=0.5;entryY=0;entryDx=0;entryDy=0;" edge="1" parent="WIyWlLk6GJQsqaUBKTNV-1" source="hfUMV4JjxT8LaMkukJHo-1" target="3d2tBKjzDwxo3XAQTUSo-152">
          <mxGeometry relative="1" as="geometry">
            <mxPoint x="750" y="280" as="targetPoint" />
          </mxGeometry>
        </mxCell>
        <mxCell id="hfUMV4JjxT8LaMkukJHo-1" value="메인 화면" style="rounded=1;whiteSpace=wrap;html=1;" vertex="1" parent="WIyWlLk6GJQsqaUBKTNV-1">
          <mxGeometry x="690" y="90" width="120" height="60" as="geometry" />
        </mxCell>
        <mxCell id="hfUMV4JjxT8LaMkukJHo-18" value="" style="edgeStyle=orthogonalEdgeStyle;rounded=0;orthogonalLoop=1;jettySize=auto;html=1;strokeColor=#FF3333;" edge="1" parent="WIyWlLk6GJQsqaUBKTNV-1" target="hfUMV4JjxT8LaMkukJHo-17">
          <mxGeometry relative="1" as="geometry">
            <mxPoint x="-1641.626923076923" y="1309.9864615384613" as="sourcePoint" />
          </mxGeometry>
        </mxCell>
        <mxCell id="hfUMV4JjxT8LaMkukJHo-39" style="edgeStyle=orthogonalEdgeStyle;rounded=0;orthogonalLoop=1;jettySize=auto;html=1;entryX=0.5;entryY=0;entryDx=0;entryDy=0;strokeColor=#FF3333;" edge="1" parent="WIyWlLk6GJQsqaUBKTNV-1">
          <mxGeometry relative="1" as="geometry">
            <mxPoint x="-1641.626923076923" y="1309.9864615384613" as="sourcePoint" />
            <mxPoint x="-1531.61" y="1370" as="targetPoint" />
            <Array as="points">
              <mxPoint x="-1641.5500000000002" y="1340" />
              <mxPoint x="-1531.55" y="1340" />
            </Array>
          </mxGeometry>
        </mxCell>
        <mxCell id="hfUMV4JjxT8LaMkukJHo-15" value="수거 신청 여부" style="rhombus;whiteSpace=wrap;html=1;rounded=1;" vertex="1" parent="WIyWlLk6GJQsqaUBKTNV-1">
          <mxGeometry x="-1699.5500000000002" y="1180" width="100" height="80" as="geometry" />
        </mxCell>
        <mxCell id="hfUMV4JjxT8LaMkukJHo-24" value="" style="edgeStyle=orthogonalEdgeStyle;rounded=0;orthogonalLoop=1;jettySize=auto;html=1;" edge="1" parent="WIyWlLk6GJQsqaUBKTNV-1" source="hfUMV4JjxT8LaMkukJHo-17" target="hfUMV4JjxT8LaMkukJHo-23">
          <mxGeometry relative="1" as="geometry" />
        </mxCell>
        <mxCell id="hfUMV4JjxT8LaMkukJHo-17" value="수거일 지정 신청" style="whiteSpace=wrap;html=1;rounded=1;" vertex="1" parent="WIyWlLk6GJQsqaUBKTNV-1">
          <mxGeometry x="-1811.6099999999997" y="1370" width="120" height="60" as="geometry" />
        </mxCell>
        <mxCell id="hfUMV4JjxT8LaMkukJHo-28" value="" style="edgeStyle=orthogonalEdgeStyle;rounded=0;orthogonalLoop=1;jettySize=auto;html=1;strokeColor=#FF3333;" edge="1" parent="WIyWlLk6GJQsqaUBKTNV-1" source="hfUMV4JjxT8LaMkukJHo-23">
          <mxGeometry relative="1" as="geometry">
            <mxPoint x="-1841.6099999999997" y="1540" as="targetPoint" />
          </mxGeometry>
        </mxCell>
        <mxCell id="hfUMV4JjxT8LaMkukJHo-374" style="edgeStyle=orthogonalEdgeStyle;rounded=0;orthogonalLoop=1;jettySize=auto;html=1;entryX=0.5;entryY=0;entryDx=0;entryDy=0;strokeColor=#FF3333;" edge="1" parent="WIyWlLk6GJQsqaUBKTNV-1" source="hfUMV4JjxT8LaMkukJHo-23" target="hfUMV4JjxT8LaMkukJHo-33">
          <mxGeometry relative="1" as="geometry">
            <Array as="points">
              <mxPoint x="-1751.6099999999997" y="1690" />
              <mxPoint x="-1721.6099999999997" y="1690" />
            </Array>
          </mxGeometry>
        </mxCell>
        <mxCell id="hfUMV4JjxT8LaMkukJHo-23" value="수거일 변경" style="rhombus;whiteSpace=wrap;html=1;" vertex="1" parent="WIyWlLk6GJQsqaUBKTNV-1">
          <mxGeometry x="-1799.6099999999997" y="1500" width="96" height="80" as="geometry" />
        </mxCell>
        <mxCell id="hfUMV4JjxT8LaMkukJHo-26" value="NO" style="text;html=1;strokeColor=default;fillColor=none;align=center;verticalAlign=middle;whiteSpace=wrap;rounded=0;" vertex="1" parent="WIyWlLk6GJQsqaUBKTNV-1">
          <mxGeometry x="-1751.6099999999997" y="1300" width="60" height="30" as="geometry" />
        </mxCell>
        <mxCell id="hfUMV4JjxT8LaMkukJHo-339" style="edgeStyle=orthogonalEdgeStyle;rounded=0;orthogonalLoop=1;jettySize=auto;html=1;dashed=1;fillColor=#fff2cc;strokeColor=#d6b656;" edge="1" parent="WIyWlLk6GJQsqaUBKTNV-1">
          <mxGeometry relative="1" as="geometry">
            <mxPoint x="-1910" y="1510" as="sourcePoint" />
            <mxPoint x="-1910" y="1469.9999999999995" as="targetPoint" />
          </mxGeometry>
        </mxCell>
        <mxCell id="hfUMV4JjxT8LaMkukJHo-27" value="수거일 변경" style="rounded=1;whiteSpace=wrap;html=1;" vertex="1" parent="WIyWlLk6GJQsqaUBKTNV-1">
          <mxGeometry x="-1240" y="1350" width="120" height="60" as="geometry" />
        </mxCell>
        <mxCell id="hfUMV4JjxT8LaMkukJHo-29" value="YES" style="text;html=1;strokeColor=default;fillColor=none;align=center;verticalAlign=middle;whiteSpace=wrap;rounded=0;" vertex="1" parent="WIyWlLk6GJQsqaUBKTNV-1">
          <mxGeometry x="-1841.6099999999997" y="1480" width="60" height="30" as="geometry" />
        </mxCell>
        <mxCell id="hfUMV4JjxT8LaMkukJHo-30" value="NO" style="text;html=1;strokeColor=default;fillColor=none;align=center;verticalAlign=middle;whiteSpace=wrap;rounded=0;" vertex="1" parent="WIyWlLk6GJQsqaUBKTNV-1">
          <mxGeometry x="-1741.6099999999997" y="1600" width="60" height="30" as="geometry" />
        </mxCell>
        <mxCell id="hfUMV4JjxT8LaMkukJHo-33" value="" style="whiteSpace=wrap;html=1;rounded=0;shadow=0;comic=0;labelBackgroundColor=none;strokeWidth=1;fillColor=#000000;fontFamily=Verdana;fontSize=12;align=center;rotation=0;" vertex="1" parent="WIyWlLk6GJQsqaUBKTNV-1">
          <mxGeometry x="-1849.5500000000002" y="1790" width="240" height="10" as="geometry" />
        </mxCell>
        <mxCell id="hfUMV4JjxT8LaMkukJHo-44" value="" style="edgeStyle=orthogonalEdgeStyle;rounded=0;orthogonalLoop=1;jettySize=auto;html=1;strokeColor=#FF3333;" edge="1" parent="WIyWlLk6GJQsqaUBKTNV-1" target="hfUMV4JjxT8LaMkukJHo-43">
          <mxGeometry relative="1" as="geometry">
            <mxPoint x="-1531.61" y="1430" as="sourcePoint" />
          </mxGeometry>
        </mxCell>
        <mxCell id="hfUMV4JjxT8LaMkukJHo-47" style="edgeStyle=orthogonalEdgeStyle;rounded=0;orthogonalLoop=1;jettySize=auto;html=1;exitX=0;exitY=0.5;exitDx=0;exitDy=0;entryX=1;entryY=0.5;entryDx=0;entryDy=0;strokeColor=#FF3333;" edge="1" parent="WIyWlLk6GJQsqaUBKTNV-1" source="hfUMV4JjxT8LaMkukJHo-43" target="hfUMV4JjxT8LaMkukJHo-23">
          <mxGeometry relative="1" as="geometry" />
        </mxCell>
        <mxCell id="hfUMV4JjxT8LaMkukJHo-375" style="edgeStyle=orthogonalEdgeStyle;rounded=0;orthogonalLoop=1;jettySize=auto;html=1;entryX=0.5;entryY=0;entryDx=0;entryDy=0;strokeColor=#FF3333;" edge="1" parent="WIyWlLk6GJQsqaUBKTNV-1" source="hfUMV4JjxT8LaMkukJHo-43" target="hfUMV4JjxT8LaMkukJHo-33">
          <mxGeometry relative="1" as="geometry">
            <Array as="points">
              <mxPoint x="-1531.61" y="1690" />
              <mxPoint x="-1721.6099999999997" y="1690" />
            </Array>
          </mxGeometry>
        </mxCell>
        <mxCell id="hfUMV4JjxT8LaMkukJHo-43" value="수거일 변경 가능" style="rhombus;whiteSpace=wrap;html=1;" vertex="1" parent="WIyWlLk6GJQsqaUBKTNV-1">
          <mxGeometry x="-1579.6099999999997" y="1500" width="96" height="80" as="geometry" />
        </mxCell>
        <mxCell id="hfUMV4JjxT8LaMkukJHo-46" value="NO" style="text;html=1;strokeColor=default;fillColor=none;align=center;verticalAlign=middle;whiteSpace=wrap;rounded=0;" vertex="1" parent="WIyWlLk6GJQsqaUBKTNV-1">
          <mxGeometry x="-1599.5500000000002" y="1590" width="60" height="30" as="geometry" />
        </mxCell>
        <mxCell id="hfUMV4JjxT8LaMkukJHo-48" value="YES" style="text;html=1;strokeColor=default;fillColor=none;align=center;verticalAlign=middle;whiteSpace=wrap;rounded=0;" vertex="1" parent="WIyWlLk6GJQsqaUBKTNV-1">
          <mxGeometry x="-1609.5500000000002" y="1460" width="60" height="30" as="geometry" />
        </mxCell>
        <mxCell id="hfUMV4JjxT8LaMkukJHo-49" value="수거일 변경&lt;br&gt;수거 신청 당일 00:00 까지 가능" style="text;html=1;strokeColor=#FF3333;fillColor=#FFFF33;align=center;verticalAlign=middle;whiteSpace=wrap;rounded=0;sketch=1;curveFitting=1;jiggle=2;" vertex="1" parent="WIyWlLk6GJQsqaUBKTNV-1">
          <mxGeometry x="-360" y="1300" width="120" height="60" as="geometry" />
        </mxCell>
        <mxCell id="hfUMV4JjxT8LaMkukJHo-55" value="" style="edgeStyle=orthogonalEdgeStyle;rounded=0;orthogonalLoop=1;jettySize=auto;html=1;" edge="1" parent="WIyWlLk6GJQsqaUBKTNV-1" source="hfUMV4JjxT8LaMkukJHo-52" target="hfUMV4JjxT8LaMkukJHo-54">
          <mxGeometry relative="1" as="geometry" />
        </mxCell>
        <mxCell id="hfUMV4JjxT8LaMkukJHo-52" value="쇼핑" style="whiteSpace=wrap;html=1;rounded=1;" vertex="1" parent="WIyWlLk6GJQsqaUBKTNV-1">
          <mxGeometry x="940" y="760" width="120" height="60" as="geometry" />
        </mxCell>
        <mxCell id="hfUMV4JjxT8LaMkukJHo-59" value="" style="edgeStyle=orthogonalEdgeStyle;rounded=0;orthogonalLoop=1;jettySize=auto;html=1;" edge="1" parent="WIyWlLk6GJQsqaUBKTNV-1" source="hfUMV4JjxT8LaMkukJHo-54">
          <mxGeometry relative="1" as="geometry">
            <mxPoint x="1000" y="1030" as="targetPoint" />
          </mxGeometry>
        </mxCell>
        <mxCell id="hfUMV4JjxT8LaMkukJHo-54" value="모래수거 수거권&lt;br&gt;상품선택" style="whiteSpace=wrap;html=1;rounded=1;" vertex="1" parent="WIyWlLk6GJQsqaUBKTNV-1">
          <mxGeometry x="940" y="900" width="120" height="60" as="geometry" />
        </mxCell>
        <mxCell id="hfUMV4JjxT8LaMkukJHo-64" value="YES" style="edgeStyle=orthogonalEdgeStyle;rounded=0;orthogonalLoop=1;jettySize=auto;html=1;strokeColor=#FF3333;" edge="1" parent="WIyWlLk6GJQsqaUBKTNV-1" source="hfUMV4JjxT8LaMkukJHo-60" target="hfUMV4JjxT8LaMkukJHo-63">
          <mxGeometry relative="1" as="geometry" />
        </mxCell>
        <mxCell id="3d2tBKjzDwxo3XAQTUSo-239" value="NO" style="edgeStyle=orthogonalEdgeStyle;rounded=0;orthogonalLoop=1;jettySize=auto;html=1;entryX=1;entryY=0.5;entryDx=0;entryDy=0;strokeColor=#FF3333;" edge="1" parent="WIyWlLk6GJQsqaUBKTNV-1" source="hfUMV4JjxT8LaMkukJHo-60" target="hfUMV4JjxT8LaMkukJHo-52">
          <mxGeometry x="-0.765" relative="1" as="geometry">
            <Array as="points">
              <mxPoint x="1150" y="1050" />
              <mxPoint x="1150" y="790" />
            </Array>
            <mxPoint x="1" as="offset" />
          </mxGeometry>
        </mxCell>
        <mxCell id="hfUMV4JjxT8LaMkukJHo-60" value="구매하기" style="rhombus;whiteSpace=wrap;html=1;" vertex="1" parent="WIyWlLk6GJQsqaUBKTNV-1">
          <mxGeometry x="952" y="1030" width="96" height="80" as="geometry" />
        </mxCell>
        <mxCell id="hfUMV4JjxT8LaMkukJHo-68" value="" style="edgeStyle=orthogonalEdgeStyle;rounded=0;orthogonalLoop=1;jettySize=auto;html=1;" edge="1" parent="WIyWlLk6GJQsqaUBKTNV-1" source="hfUMV4JjxT8LaMkukJHo-63" target="hfUMV4JjxT8LaMkukJHo-67">
          <mxGeometry relative="1" as="geometry" />
        </mxCell>
        <mxCell id="hfUMV4JjxT8LaMkukJHo-63" value="배송 상세정보 입력" style="rounded=1;whiteSpace=wrap;html=1;" vertex="1" parent="WIyWlLk6GJQsqaUBKTNV-1">
          <mxGeometry x="940" y="1200" width="120" height="60" as="geometry" />
        </mxCell>
        <mxCell id="3d2tBKjzDwxo3XAQTUSo-102" value="" style="edgeStyle=orthogonalEdgeStyle;rounded=0;orthogonalLoop=1;jettySize=auto;html=1;" edge="1" parent="WIyWlLk6GJQsqaUBKTNV-1" source="hfUMV4JjxT8LaMkukJHo-67">
          <mxGeometry relative="1" as="geometry">
            <mxPoint x="1000" y="1500" as="targetPoint" />
          </mxGeometry>
        </mxCell>
        <mxCell id="hfUMV4JjxT8LaMkukJHo-67" value="결제 상세정보 입력" style="whiteSpace=wrap;html=1;rounded=1;" vertex="1" parent="WIyWlLk6GJQsqaUBKTNV-1">
          <mxGeometry x="940" y="1340" width="120" height="60" as="geometry" />
        </mxCell>
        <mxCell id="hfUMV4JjxT8LaMkukJHo-71" value="상품 구매시&amp;nbsp;&lt;br&gt;해당 상품은 기본으로 제공 되는 배송 상품이 있기 때문에 수거에 필요한 물품을 준수하여 수거 신청을 해야 수거한다는 내용 고지" style="text;html=1;strokeColor=#FF3333;fillColor=#FFFF33;align=center;verticalAlign=middle;whiteSpace=wrap;rounded=0;sketch=1;curveFitting=1;jiggle=2;" vertex="1" parent="WIyWlLk6GJQsqaUBKTNV-1">
          <mxGeometry x="410" y="460" width="240" height="150" as="geometry" />
        </mxCell>
        <mxCell id="hfUMV4JjxT8LaMkukJHo-105" value="" style="edgeStyle=orthogonalEdgeStyle;rounded=0;orthogonalLoop=1;jettySize=auto;html=1;" edge="1" parent="WIyWlLk6GJQsqaUBKTNV-1" target="hfUMV4JjxT8LaMkukJHo-104">
          <mxGeometry relative="1" as="geometry">
            <mxPoint x="2039" as="sourcePoint" />
          </mxGeometry>
        </mxCell>
        <mxCell id="hfUMV4JjxT8LaMkukJHo-83" value="로그인" style="ellipse;whiteSpace=wrap;html=1;" vertex="1" parent="WIyWlLk6GJQsqaUBKTNV-1">
          <mxGeometry x="1979" y="-80" width="120" height="80" as="geometry" />
        </mxCell>
        <mxCell id="hfUMV4JjxT8LaMkukJHo-98" value="모래수거 흐름도" style="shape=process;whiteSpace=wrap;html=1;backgroundOutline=1;size=0;" vertex="1" parent="WIyWlLk6GJQsqaUBKTNV-1">
          <mxGeometry x="-1050" y="-130" width="4590" height="30" as="geometry" />
        </mxCell>
        <mxCell id="hfUMV4JjxT8LaMkukJHo-99" value="사용자 구매 및 사용 관점" style="shape=process;whiteSpace=wrap;html=1;backgroundOutline=1;size=0;" vertex="1" parent="WIyWlLk6GJQsqaUBKTNV-1">
          <mxGeometry x="-1050" y="-100" width="2290" height="30" as="geometry" />
        </mxCell>
        <mxCell id="hfUMV4JjxT8LaMkukJHo-102" value="" style="endArrow=none;html=1;rounded=0;" edge="1" parent="WIyWlLk6GJQsqaUBKTNV-1" source="hfUMV4JjxT8LaMkukJHo-303">
          <mxGeometry width="50" height="50" relative="1" as="geometry">
            <mxPoint x="1240" y="1940" as="sourcePoint" />
            <mxPoint x="1240" y="-70" as="targetPoint" />
          </mxGeometry>
        </mxCell>
        <mxCell id="hfUMV4JjxT8LaMkukJHo-103" value="&amp;nbsp;운영자 관점" style="shape=process;whiteSpace=wrap;html=1;backgroundOutline=1;size=0;" vertex="1" parent="WIyWlLk6GJQsqaUBKTNV-1">
          <mxGeometry x="1240" y="-100" width="1550" height="30" as="geometry" />
        </mxCell>
        <mxCell id="3d2tBKjzDwxo3XAQTUSo-72" style="edgeStyle=orthogonalEdgeStyle;rounded=0;orthogonalLoop=1;jettySize=auto;html=1;entryX=0.5;entryY=0;entryDx=0;entryDy=0;" edge="1" parent="WIyWlLk6GJQsqaUBKTNV-1" source="hfUMV4JjxT8LaMkukJHo-104" target="3d2tBKjzDwxo3XAQTUSo-36">
          <mxGeometry relative="1" as="geometry" />
        </mxCell>
        <mxCell id="hfUMV4JjxT8LaMkukJHo-104" value="주문 관리" style="rounded=1;whiteSpace=wrap;html=1;" vertex="1" parent="WIyWlLk6GJQsqaUBKTNV-1">
          <mxGeometry x="1979" y="60" width="120" height="60" as="geometry" />
        </mxCell>
        <mxCell id="rPkNx3lefUZQREJ5seEW-12" style="edgeStyle=orthogonalEdgeStyle;rounded=0;orthogonalLoop=1;jettySize=auto;html=1;entryX=0.5;entryY=0;entryDx=0;entryDy=0;" edge="1" parent="WIyWlLk6GJQsqaUBKTNV-1" source="hfUMV4JjxT8LaMkukJHo-106" target="3d2tBKjzDwxo3XAQTUSo-114">
          <mxGeometry relative="1" as="geometry" />
        </mxCell>
        <mxCell id="hfUMV4JjxT8LaMkukJHo-106" value="모래수거 요청지" style="whiteSpace=wrap;html=1;rounded=1;" vertex="1" parent="WIyWlLk6GJQsqaUBKTNV-1">
          <mxGeometry x="1800" y="970" width="120" height="60" as="geometry" />
        </mxCell>
        <mxCell id="hfUMV4JjxT8LaMkukJHo-304" value="수거 완료에 대한 처리는 현재 사용자가&lt;br&gt;기능상 확인 할 수 없다&lt;br&gt;(문 앞에 뒀는데 수거일이 지나도 계속 있으면)&lt;br&gt;&lt;br&gt;&lt;br&gt;&lt;br&gt;&lt;br&gt;* 미수거시 사이트내 고객센터 문의&lt;br&gt;" style="text;html=1;strokeColor=#FF3333;fillColor=#FFFF33;align=center;verticalAlign=middle;whiteSpace=wrap;rounded=0;sketch=1;curveFitting=1;jiggle=2;" vertex="1" parent="WIyWlLk6GJQsqaUBKTNV-1">
          <mxGeometry x="-160" y="1820" width="250" height="180" as="geometry" />
        </mxCell>
        <mxCell id="3d2tBKjzDwxo3XAQTUSo-127" value="" style="edgeStyle=orthogonalEdgeStyle;rounded=0;orthogonalLoop=1;jettySize=auto;html=1;entryX=0.5;entryY=0;entryDx=0;entryDy=0;" edge="1" parent="WIyWlLk6GJQsqaUBKTNV-1" source="hfUMV4JjxT8LaMkukJHo-305" target="3d2tBKjzDwxo3XAQTUSo-134">
          <mxGeometry relative="1" as="geometry">
            <mxPoint x="1680" y="1485" as="targetPoint" />
            <Array as="points" />
          </mxGeometry>
        </mxCell>
        <mxCell id="hfUMV4JjxT8LaMkukJHo-305" value="수거지 명단 확인&lt;br&gt;엑셀 다운로드" style="shape=document;whiteSpace=wrap;html=1;boundedLbl=1;" vertex="1" parent="WIyWlLk6GJQsqaUBKTNV-1">
          <mxGeometry x="2240" y="1330" width="120" height="80" as="geometry" />
        </mxCell>
        <mxCell id="hfUMV4JjxT8LaMkukJHo-308" value="수거기사" style="shape=process;whiteSpace=wrap;html=1;backgroundOutline=1;size=0;" vertex="1" parent="WIyWlLk6GJQsqaUBKTNV-1">
          <mxGeometry x="2790" y="-100" width="750" height="30" as="geometry" />
        </mxCell>
        <mxCell id="hfUMV4JjxT8LaMkukJHo-320" value="&lt;br&gt;배송기사로부터 수거처리되었다고 전달받았지만 사용자로부터 미수거처리되었다고 연락받았을 때&lt;br&gt;&lt;br&gt;&lt;br&gt;미수거 시 수거 고객과의 전화통화 후 미수거 사유 확인 후 복구 결정" style="text;html=1;strokeColor=#FF3333;fillColor=#FFFF33;align=center;verticalAlign=middle;whiteSpace=wrap;rounded=0;sketch=1;curveFitting=1;jiggle=2;" vertex="1" parent="WIyWlLk6GJQsqaUBKTNV-1">
          <mxGeometry x="1895" y="1735" width="240" height="150" as="geometry" />
        </mxCell>
        <mxCell id="hfUMV4JjxT8LaMkukJHo-351" value="" style="edgeStyle=orthogonalEdgeStyle;rounded=0;orthogonalLoop=1;jettySize=auto;html=1;" edge="1" parent="WIyWlLk6GJQsqaUBKTNV-1" target="hfUMV4JjxT8LaMkukJHo-350">
          <mxGeometry relative="1" as="geometry">
            <mxPoint x="3206" as="sourcePoint" />
          </mxGeometry>
        </mxCell>
        <mxCell id="hfUMV4JjxT8LaMkukJHo-355" style="edgeStyle=orthogonalEdgeStyle;rounded=0;orthogonalLoop=1;jettySize=auto;html=1;entryX=0.5;entryY=0;entryDx=0;entryDy=0;" edge="1" parent="WIyWlLk6GJQsqaUBKTNV-1" source="hfUMV4JjxT8LaMkukJHo-350" target="hfUMV4JjxT8LaMkukJHo-354">
          <mxGeometry relative="1" as="geometry" />
        </mxCell>
        <mxCell id="hfUMV4JjxT8LaMkukJHo-350" value="수거지 방문" style="rounded=1;whiteSpace=wrap;html=1;fillColor=#dae8fc;strokeColor=#6c8ebf;" vertex="1" parent="WIyWlLk6GJQsqaUBKTNV-1">
          <mxGeometry x="3146" y="50" width="120" height="60" as="geometry" />
        </mxCell>
        <mxCell id="hfUMV4JjxT8LaMkukJHo-365" value="" style="edgeStyle=orthogonalEdgeStyle;rounded=0;orthogonalLoop=1;jettySize=auto;html=1;strokeColor=#FF3333;" edge="1" parent="WIyWlLk6GJQsqaUBKTNV-1" source="hfUMV4JjxT8LaMkukJHo-354" target="hfUMV4JjxT8LaMkukJHo-364">
          <mxGeometry relative="1" as="geometry" />
        </mxCell>
        <mxCell id="rPkNx3lefUZQREJ5seEW-53" value="YES" style="edgeLabel;html=1;align=center;verticalAlign=middle;resizable=0;points=[];" connectable="0" vertex="1" parent="hfUMV4JjxT8LaMkukJHo-365">
          <mxGeometry x="-0.3924" y="2" relative="1" as="geometry">
            <mxPoint as="offset" />
          </mxGeometry>
        </mxCell>
        <mxCell id="hfUMV4JjxT8LaMkukJHo-367" value="NO" style="edgeStyle=orthogonalEdgeStyle;rounded=0;orthogonalLoop=1;jettySize=auto;html=1;strokeColor=#FF3333;entryX=0.5;entryY=0;entryDx=0;entryDy=0;" edge="1" parent="WIyWlLk6GJQsqaUBKTNV-1" source="hfUMV4JjxT8LaMkukJHo-354" target="hfUMV4JjxT8LaMkukJHo-366">
          <mxGeometry relative="1" as="geometry">
            <mxPoint x="3090" y="470" as="targetPoint" />
          </mxGeometry>
        </mxCell>
        <mxCell id="hfUMV4JjxT8LaMkukJHo-354" value="수거 가능&lt;br&gt;여부 확인" style="rhombus;whiteSpace=wrap;html=1;fillColor=#dae8fc;strokeColor=#6c8ebf;" vertex="1" parent="WIyWlLk6GJQsqaUBKTNV-1">
          <mxGeometry x="3158" y="200" width="96" height="80" as="geometry" />
        </mxCell>
        <mxCell id="hfUMV4JjxT8LaMkukJHo-359" value="수거자 명단 확인" style="ellipse;whiteSpace=wrap;html=1;fillColor=#dae8fc;strokeColor=#6c8ebf;" vertex="1" parent="WIyWlLk6GJQsqaUBKTNV-1">
          <mxGeometry x="3146" y="-70" width="120" height="80" as="geometry" />
        </mxCell>
        <mxCell id="hfUMV4JjxT8LaMkukJHo-360" value="" style="endArrow=none;html=1;rounded=0;" edge="1" parent="WIyWlLk6GJQsqaUBKTNV-1">
          <mxGeometry width="50" height="50" relative="1" as="geometry">
            <mxPoint x="2790" y="1810" as="sourcePoint" />
            <mxPoint x="2790" y="-70" as="targetPoint" />
          </mxGeometry>
        </mxCell>
        <mxCell id="rPkNx3lefUZQREJ5seEW-56" style="edgeStyle=orthogonalEdgeStyle;rounded=0;orthogonalLoop=1;jettySize=auto;html=1;" edge="1" parent="WIyWlLk6GJQsqaUBKTNV-1" source="hfUMV4JjxT8LaMkukJHo-364" target="hfUMV4JjxT8LaMkukJHo-368">
          <mxGeometry relative="1" as="geometry" />
        </mxCell>
        <mxCell id="hfUMV4JjxT8LaMkukJHo-364" value="수거" style="rounded=1;whiteSpace=wrap;html=1;fillColor=#dae8fc;strokeColor=#6c8ebf;" vertex="1" parent="WIyWlLk6GJQsqaUBKTNV-1">
          <mxGeometry x="3146" y="600" width="120" height="60" as="geometry" />
        </mxCell>
        <mxCell id="rPkNx3lefUZQREJ5seEW-57" style="edgeStyle=orthogonalEdgeStyle;rounded=0;orthogonalLoop=1;jettySize=auto;html=1;entryX=0.5;entryY=0;entryDx=0;entryDy=0;" edge="1" parent="WIyWlLk6GJQsqaUBKTNV-1" source="hfUMV4JjxT8LaMkukJHo-366" target="3d2tBKjzDwxo3XAQTUSo-242">
          <mxGeometry relative="1" as="geometry">
            <Array as="points">
              <mxPoint x="3440" y="1140" />
              <mxPoint x="3206" y="1140" />
            </Array>
            <mxPoint x="3206" y="1230" as="targetPoint" />
          </mxGeometry>
        </mxCell>
        <mxCell id="hfUMV4JjxT8LaMkukJHo-366" value="해당 사용자 &lt;br&gt;미수거 체크" style="rounded=1;whiteSpace=wrap;html=1;fillColor=#dae8fc;strokeColor=#6c8ebf;" vertex="1" parent="WIyWlLk6GJQsqaUBKTNV-1">
          <mxGeometry x="3380" y="610" width="120" height="60" as="geometry" />
        </mxCell>
        <mxCell id="hfUMV4JjxT8LaMkukJHo-342" value="수거지 명단 정보" style="rounded=0;whiteSpace=wrap;html=1;fillColor=#fff2cc;strokeColor=#d6b656;" vertex="1" parent="WIyWlLk6GJQsqaUBKTNV-1">
          <mxGeometry x="2580" y="1055" width="120" height="40" as="geometry" />
        </mxCell>
        <mxCell id="3d2tBKjzDwxo3XAQTUSo-6" style="edgeStyle=orthogonalEdgeStyle;rounded=0;orthogonalLoop=1;jettySize=auto;html=1;entryX=0.552;entryY=0.847;entryDx=0;entryDy=0;entryPerimeter=0;" edge="1" parent="WIyWlLk6GJQsqaUBKTNV-1" target="hfUMV4JjxT8LaMkukJHo-33">
          <mxGeometry relative="1" as="geometry">
            <Array as="points">
              <mxPoint x="-1909.5500000000002" y="1690" />
              <mxPoint x="-1716.5500000000002" y="1690" />
            </Array>
            <mxPoint x="-1909.4833333333336" y="1570" as="sourcePoint" />
          </mxGeometry>
        </mxCell>
        <mxCell id="3d2tBKjzDwxo3XAQTUSo-25" value="" style="edgeStyle=orthogonalEdgeStyle;rounded=0;orthogonalLoop=1;jettySize=auto;html=1;" edge="1" parent="WIyWlLk6GJQsqaUBKTNV-1">
          <mxGeometry relative="1" as="geometry">
            <mxPoint x="490" y="1170" as="sourcePoint" />
          </mxGeometry>
        </mxCell>
        <mxCell id="3d2tBKjzDwxo3XAQTUSo-26" value="해지 신청 &lt;br&gt;완료" style="ellipse;whiteSpace=wrap;html=1;rounded=1;" vertex="1" parent="WIyWlLk6GJQsqaUBKTNV-1">
          <mxGeometry x="130" y="1635" width="80" height="80" as="geometry" />
        </mxCell>
        <mxCell id="3d2tBKjzDwxo3XAQTUSo-31" value="" style="endArrow=none;html=1;rounded=0;" edge="1" parent="WIyWlLk6GJQsqaUBKTNV-1">
          <mxGeometry width="50" height="50" relative="1" as="geometry">
            <mxPoint x="3540" y="1960" as="sourcePoint" />
            <mxPoint x="3540" y="-84" as="targetPoint" />
          </mxGeometry>
        </mxCell>
        <mxCell id="3d2tBKjzDwxo3XAQTUSo-48" style="edgeStyle=orthogonalEdgeStyle;rounded=0;orthogonalLoop=1;jettySize=auto;html=1;" edge="1" parent="WIyWlLk6GJQsqaUBKTNV-1" source="3d2tBKjzDwxo3XAQTUSo-36" target="hfUMV4JjxT8LaMkukJHo-106">
          <mxGeometry relative="1" as="geometry">
            <Array as="points">
              <mxPoint x="1950" y="330" />
              <mxPoint x="1860" y="330" />
            </Array>
          </mxGeometry>
        </mxCell>
        <mxCell id="3d2tBKjzDwxo3XAQTUSo-50" style="edgeStyle=orthogonalEdgeStyle;rounded=0;orthogonalLoop=1;jettySize=auto;html=1;" edge="1" parent="WIyWlLk6GJQsqaUBKTNV-1" source="3d2tBKjzDwxo3XAQTUSo-36" target="3d2tBKjzDwxo3XAQTUSo-42">
          <mxGeometry relative="1" as="geometry">
            <Array as="points">
              <mxPoint x="2130" y="330" />
              <mxPoint x="2300" y="330" />
            </Array>
          </mxGeometry>
        </mxCell>
        <mxCell id="3d2tBKjzDwxo3XAQTUSo-36" value="" style="whiteSpace=wrap;html=1;rounded=0;shadow=0;comic=0;labelBackgroundColor=none;strokeWidth=1;fillColor=#000000;fontFamily=Verdana;fontSize=12;align=center;rotation=0;" vertex="1" parent="WIyWlLk6GJQsqaUBKTNV-1">
          <mxGeometry x="1919" y="230" width="240" height="10" as="geometry" />
        </mxCell>
        <mxCell id="3d2tBKjzDwxo3XAQTUSo-55" value="" style="edgeStyle=orthogonalEdgeStyle;rounded=0;orthogonalLoop=1;jettySize=auto;html=1;" edge="1" parent="WIyWlLk6GJQsqaUBKTNV-1" source="3d2tBKjzDwxo3XAQTUSo-42" target="3d2tBKjzDwxo3XAQTUSo-54">
          <mxGeometry relative="1" as="geometry" />
        </mxCell>
        <mxCell id="3d2tBKjzDwxo3XAQTUSo-42" value="주문 취소 리스트" style="rounded=1;whiteSpace=wrap;html=1;" vertex="1" parent="WIyWlLk6GJQsqaUBKTNV-1">
          <mxGeometry x="2240" y="440" width="120" height="60" as="geometry" />
        </mxCell>
        <mxCell id="3d2tBKjzDwxo3XAQTUSo-45" value="해지요청 명단 정보" style="rounded=0;whiteSpace=wrap;html=1;fillColor=#fff2cc;strokeColor=#d6b656;" vertex="1" parent="WIyWlLk6GJQsqaUBKTNV-1">
          <mxGeometry x="1180" y="755" width="120" height="40" as="geometry" />
        </mxCell>
        <mxCell id="3d2tBKjzDwxo3XAQTUSo-52" value="a" style="endArrow=none;html=1;rounded=0;" edge="1" parent="WIyWlLk6GJQsqaUBKTNV-1">
          <mxGeometry width="50" height="50" relative="1" as="geometry">
            <mxPoint x="2790" y="1950" as="sourcePoint" />
            <mxPoint x="2790" y="1800" as="targetPoint" />
          </mxGeometry>
        </mxCell>
        <mxCell id="3d2tBKjzDwxo3XAQTUSo-53" value="" style="endArrow=none;html=1;rounded=0;" edge="1" parent="WIyWlLk6GJQsqaUBKTNV-1" target="hfUMV4JjxT8LaMkukJHo-303">
          <mxGeometry width="50" height="50" relative="1" as="geometry">
            <mxPoint x="1240" y="1940" as="sourcePoint" />
            <mxPoint x="1240" y="-70" as="targetPoint" />
          </mxGeometry>
        </mxCell>
        <mxCell id="hfUMV4JjxT8LaMkukJHo-303" value="수거 요청 정보" style="rounded=0;whiteSpace=wrap;html=1;fillColor=#fff2cc;strokeColor=#d6b656;" vertex="1" parent="WIyWlLk6GJQsqaUBKTNV-1">
          <mxGeometry x="1180" y="1030" width="120" height="40" as="geometry" />
        </mxCell>
        <mxCell id="3d2tBKjzDwxo3XAQTUSo-57" style="edgeStyle=orthogonalEdgeStyle;rounded=0;orthogonalLoop=1;jettySize=auto;html=1;entryX=0.5;entryY=0;entryDx=0;entryDy=0;" edge="1" parent="WIyWlLk6GJQsqaUBKTNV-1" source="3d2tBKjzDwxo3XAQTUSo-54" target="3d2tBKjzDwxo3XAQTUSo-56">
          <mxGeometry relative="1" as="geometry" />
        </mxCell>
        <mxCell id="3d2tBKjzDwxo3XAQTUSo-54" value="취소사유 확인" style="whiteSpace=wrap;html=1;rounded=1;" vertex="1" parent="WIyWlLk6GJQsqaUBKTNV-1">
          <mxGeometry x="2240" y="580" width="120" height="60" as="geometry" />
        </mxCell>
        <mxCell id="3d2tBKjzDwxo3XAQTUSo-59" value="NO" style="edgeStyle=orthogonalEdgeStyle;rounded=0;orthogonalLoop=1;jettySize=auto;html=1;strokeColor=#FF3333;" edge="1" parent="WIyWlLk6GJQsqaUBKTNV-1" source="3d2tBKjzDwxo3XAQTUSo-56" target="3d2tBKjzDwxo3XAQTUSo-60">
          <mxGeometry relative="1" as="geometry">
            <mxPoint x="2416" y="755" as="targetPoint" />
          </mxGeometry>
        </mxCell>
        <mxCell id="3d2tBKjzDwxo3XAQTUSo-67" value="YES" style="edgeStyle=orthogonalEdgeStyle;rounded=0;orthogonalLoop=1;jettySize=auto;html=1;strokeColor=#FF3333;" edge="1" parent="WIyWlLk6GJQsqaUBKTNV-1" source="3d2tBKjzDwxo3XAQTUSo-56">
          <mxGeometry relative="1" as="geometry">
            <mxPoint x="2300" y="855" as="targetPoint" />
          </mxGeometry>
        </mxCell>
        <mxCell id="3d2tBKjzDwxo3XAQTUSo-56" value="수거권&amp;nbsp;&lt;br&gt;잔여" style="rhombus;whiteSpace=wrap;html=1;" vertex="1" parent="WIyWlLk6GJQsqaUBKTNV-1">
          <mxGeometry x="2252" y="715" width="96" height="80" as="geometry" />
        </mxCell>
        <mxCell id="3d2tBKjzDwxo3XAQTUSo-76" style="edgeStyle=orthogonalEdgeStyle;rounded=0;orthogonalLoop=1;jettySize=auto;html=1;entryX=1;entryY=0.5;entryDx=0;entryDy=0;" edge="1" parent="WIyWlLk6GJQsqaUBKTNV-1" source="3d2tBKjzDwxo3XAQTUSo-60" target="3d2tBKjzDwxo3XAQTUSo-74">
          <mxGeometry relative="1" as="geometry">
            <Array as="points">
              <mxPoint x="2560" y="990" />
            </Array>
          </mxGeometry>
        </mxCell>
        <mxCell id="3d2tBKjzDwxo3XAQTUSo-60" value="환불 금액 0원&amp;nbsp;" style="ellipse;whiteSpace=wrap;html=1;aspect=fixed;" vertex="1" parent="WIyWlLk6GJQsqaUBKTNV-1">
          <mxGeometry x="2520" y="715" width="80" height="80" as="geometry" />
        </mxCell>
        <mxCell id="3d2tBKjzDwxo3XAQTUSo-61" value="환불할 금액이 없을 시 0원으로 환불 처리 하면 다음 달 예약 결제 취소" style="text;html=1;strokeColor=#FF3333;fillColor=#FFFF33;align=center;verticalAlign=middle;whiteSpace=wrap;rounded=0;sketch=1;curveFitting=1;jiggle=2;" vertex="1" parent="WIyWlLk6GJQsqaUBKTNV-1">
          <mxGeometry x="2580" y="520" width="200" height="100" as="geometry" />
        </mxCell>
        <mxCell id="3d2tBKjzDwxo3XAQTUSo-62" style="edgeStyle=orthogonalEdgeStyle;rounded=0;orthogonalLoop=1;jettySize=auto;html=1;entryX=0.602;entryY=1.001;entryDx=0;entryDy=0;entryPerimeter=0;dashed=1;fillColor=#fff2cc;strokeColor=#d6b656;" edge="1" parent="WIyWlLk6GJQsqaUBKTNV-1" source="3d2tBKjzDwxo3XAQTUSo-60" target="3d2tBKjzDwxo3XAQTUSo-61">
          <mxGeometry relative="1" as="geometry">
            <Array as="points">
              <mxPoint x="2700" y="755" />
            </Array>
          </mxGeometry>
        </mxCell>
        <mxCell id="3d2tBKjzDwxo3XAQTUSo-75" value="" style="edgeStyle=orthogonalEdgeStyle;rounded=0;orthogonalLoop=1;jettySize=auto;html=1;" edge="1" parent="WIyWlLk6GJQsqaUBKTNV-1" source="3d2tBKjzDwxo3XAQTUSo-66" target="3d2tBKjzDwxo3XAQTUSo-74">
          <mxGeometry relative="1" as="geometry" />
        </mxCell>
        <mxCell id="3d2tBKjzDwxo3XAQTUSo-66" value="관리자가 주문번호 별 잔여 수거권 환불금액 판단" style="rounded=1;whiteSpace=wrap;html=1;" vertex="1" parent="WIyWlLk6GJQsqaUBKTNV-1">
          <mxGeometry x="2240" y="860" width="120" height="60" as="geometry" />
        </mxCell>
        <mxCell id="3d2tBKjzDwxo3XAQTUSo-71" value="취소 완료" style="ellipse;whiteSpace=wrap;html=1;aspect=fixed;" vertex="1" parent="WIyWlLk6GJQsqaUBKTNV-1">
          <mxGeometry x="2260" y="1075" width="80" height="80" as="geometry" />
        </mxCell>
        <mxCell id="3d2tBKjzDwxo3XAQTUSo-77" style="edgeStyle=orthogonalEdgeStyle;rounded=0;orthogonalLoop=1;jettySize=auto;html=1;entryX=0.5;entryY=0;entryDx=0;entryDy=0;" edge="1" parent="WIyWlLk6GJQsqaUBKTNV-1" source="3d2tBKjzDwxo3XAQTUSo-74" target="3d2tBKjzDwxo3XAQTUSo-71">
          <mxGeometry relative="1" as="geometry" />
        </mxCell>
        <mxCell id="3d2tBKjzDwxo3XAQTUSo-74" value="환불 금액 지정하여 &lt;br&gt;환불 진행" style="whiteSpace=wrap;html=1;rounded=1;" vertex="1" parent="WIyWlLk6GJQsqaUBKTNV-1">
          <mxGeometry x="2240" y="960" width="120" height="60" as="geometry" />
        </mxCell>
        <mxCell id="3d2tBKjzDwxo3XAQTUSo-78" value="모래수거 명단 확인" style="text;html=1;strokeColor=default;fillColor=none;align=center;verticalAlign=middle;whiteSpace=wrap;rounded=0;" vertex="1" parent="WIyWlLk6GJQsqaUBKTNV-1">
          <mxGeometry x="1800" y="270" width="120" height="30" as="geometry" />
        </mxCell>
        <mxCell id="3d2tBKjzDwxo3XAQTUSo-79" value="해지 요청자 명단 확인" style="text;html=1;strokeColor=default;fillColor=none;align=center;verticalAlign=middle;whiteSpace=wrap;rounded=0;" vertex="1" parent="WIyWlLk6GJQsqaUBKTNV-1">
          <mxGeometry x="2252" y="270" width="120" height="30" as="geometry" />
        </mxCell>
        <mxCell id="3d2tBKjzDwxo3XAQTUSo-86" value="YES" style="text;html=1;strokeColor=default;fillColor=none;align=center;verticalAlign=middle;whiteSpace=wrap;rounded=0;" vertex="1" parent="WIyWlLk6GJQsqaUBKTNV-1">
          <mxGeometry x="-1589.5500000000002" y="1300" width="60" height="30" as="geometry" />
        </mxCell>
        <mxCell id="3d2tBKjzDwxo3XAQTUSo-91" style="edgeStyle=orthogonalEdgeStyle;rounded=0;orthogonalLoop=1;jettySize=auto;html=1;strokeColor=#FF3333;" edge="1" parent="WIyWlLk6GJQsqaUBKTNV-1" source="3d2tBKjzDwxo3XAQTUSo-90">
          <mxGeometry relative="1" as="geometry">
            <mxPoint x="-1399.5499999999995" y="1500" as="targetPoint" />
          </mxGeometry>
        </mxCell>
        <mxCell id="3d2tBKjzDwxo3XAQTUSo-90" value="수거신청&amp;nbsp;&lt;br&gt;여부 확인" style="rhombus;whiteSpace=wrap;html=1;" vertex="1" parent="WIyWlLk6GJQsqaUBKTNV-1">
          <mxGeometry x="-1579.6099999999997" y="1370" width="96" height="80" as="geometry" />
        </mxCell>
        <mxCell id="3d2tBKjzDwxo3XAQTUSo-92" value="수거 신청 &lt;br&gt;내역 페이지" style="ellipse;whiteSpace=wrap;html=1;aspect=fixed;" vertex="1" parent="WIyWlLk6GJQsqaUBKTNV-1">
          <mxGeometry x="-1409.5499999999995" y="1500" width="80" height="80" as="geometry" />
        </mxCell>
        <mxCell id="3d2tBKjzDwxo3XAQTUSo-93" value="NO" style="text;html=1;strokeColor=default;fillColor=none;align=center;verticalAlign=middle;whiteSpace=wrap;rounded=0;" vertex="1" parent="WIyWlLk6GJQsqaUBKTNV-1">
          <mxGeometry x="-1469.55" y="1370" width="60" height="30" as="geometry" />
        </mxCell>
        <mxCell id="3d2tBKjzDwxo3XAQTUSo-105" value="수거기사에 대한 내용은 시스템으로 만들어져 있지 않다.&lt;br&gt;&lt;br&gt;** 수거 기사에 대한 내용 예측 프로세스" style="text;html=1;strokeColor=#FF3333;fillColor=#FFFF33;align=center;verticalAlign=middle;whiteSpace=wrap;rounded=0;sketch=1;curveFitting=1;jiggle=2;" vertex="1" parent="WIyWlLk6GJQsqaUBKTNV-1">
          <mxGeometry x="2840" y="-40" width="240" height="150" as="geometry" />
        </mxCell>
        <mxCell id="3d2tBKjzDwxo3XAQTUSo-119" style="edgeStyle=orthogonalEdgeStyle;rounded=0;orthogonalLoop=1;jettySize=auto;html=1;entryX=0.5;entryY=0;entryDx=0;entryDy=0;exitX=0.5;exitY=1;exitDx=0;exitDy=0;" edge="1" parent="WIyWlLk6GJQsqaUBKTNV-1" source="3d2tBKjzDwxo3XAQTUSo-114" target="rPkNx3lefUZQREJ5seEW-38">
          <mxGeometry relative="1" as="geometry">
            <Array as="points">
              <mxPoint x="1859" y="1280" />
              <mxPoint x="1430" y="1280" />
            </Array>
            <mxPoint x="1488" y="1315" as="targetPoint" />
          </mxGeometry>
        </mxCell>
        <mxCell id="rPkNx3lefUZQREJ5seEW-44" style="edgeStyle=orthogonalEdgeStyle;rounded=0;orthogonalLoop=1;jettySize=auto;html=1;" edge="1" parent="WIyWlLk6GJQsqaUBKTNV-1" source="3d2tBKjzDwxo3XAQTUSo-114" target="hfUMV4JjxT8LaMkukJHo-305">
          <mxGeometry relative="1" as="geometry">
            <Array as="points">
              <mxPoint x="1860" y="1280" />
              <mxPoint x="2300" y="1280" />
            </Array>
          </mxGeometry>
        </mxCell>
        <mxCell id="3d2tBKjzDwxo3XAQTUSo-219" style="edgeStyle=orthogonalEdgeStyle;rounded=0;orthogonalLoop=1;jettySize=auto;html=1;entryX=0.5;entryY=0;entryDx=0;entryDy=0;" edge="1" parent="WIyWlLk6GJQsqaUBKTNV-1" source="3d2tBKjzDwxo3XAQTUSo-114" target="rPkNx3lefUZQREJ5seEW-28">
          <mxGeometry relative="1" as="geometry" />
        </mxCell>
        <mxCell id="3d2tBKjzDwxo3XAQTUSo-114" value="" style="whiteSpace=wrap;html=1;rounded=0;shadow=0;comic=0;labelBackgroundColor=none;strokeWidth=1;fillColor=#000000;fontFamily=Verdana;fontSize=12;align=center;rotation=0;" vertex="1" parent="WIyWlLk6GJQsqaUBKTNV-1">
          <mxGeometry x="1739" y="1230" width="240" height="20" as="geometry" />
        </mxCell>
        <mxCell id="3d2tBKjzDwxo3XAQTUSo-134" value="수거자 명단&lt;br style=&quot;border-color: var(--border-color);&quot;&gt;전달" style="ellipse;whiteSpace=wrap;html=1;aspect=fixed;" vertex="1" parent="WIyWlLk6GJQsqaUBKTNV-1">
          <mxGeometry x="2260" y="1640" width="80" height="80" as="geometry" />
        </mxCell>
        <mxCell id="3d2tBKjzDwxo3XAQTUSo-154" value="잔여 수거권 있음" style="edgeStyle=orthogonalEdgeStyle;rounded=0;orthogonalLoop=1;jettySize=auto;html=1;exitX=0;exitY=0.5;exitDx=0;exitDy=0;entryX=0.5;entryY=0;entryDx=0;entryDy=0;" edge="1" parent="WIyWlLk6GJQsqaUBKTNV-1" source="3d2tBKjzDwxo3XAQTUSo-152" target="3d2tBKjzDwxo3XAQTUSo-156">
          <mxGeometry relative="1" as="geometry">
            <mxPoint x="330" y="409.99999999999955" as="targetPoint" />
            <Array as="points">
              <mxPoint x="120" y="270" />
              <mxPoint x="120" y="520" />
            </Array>
          </mxGeometry>
        </mxCell>
        <mxCell id="3d2tBKjzDwxo3XAQTUSo-152" value="모래수거 서비스 잔여 횟수 확인" style="rhombus;whiteSpace=wrap;html=1;rounded=1;" vertex="1" parent="WIyWlLk6GJQsqaUBKTNV-1">
          <mxGeometry x="700" y="230" width="100" height="80" as="geometry" />
        </mxCell>
        <mxCell id="3d2tBKjzDwxo3XAQTUSo-158" value="사용" style="edgeStyle=orthogonalEdgeStyle;rounded=0;orthogonalLoop=1;jettySize=auto;html=1;exitX=0.25;exitY=1;exitDx=0;exitDy=0;" edge="1" parent="WIyWlLk6GJQsqaUBKTNV-1" source="3d2tBKjzDwxo3XAQTUSo-156" target="3d2tBKjzDwxo3XAQTUSo-178">
          <mxGeometry x="-0.7265" relative="1" as="geometry">
            <mxPoint x="109.99999999999955" y="784.9999999999995" as="targetPoint" />
            <mxPoint as="offset" />
          </mxGeometry>
        </mxCell>
        <mxCell id="3d2tBKjzDwxo3XAQTUSo-183" value="해지" style="edgeStyle=orthogonalEdgeStyle;rounded=0;orthogonalLoop=1;jettySize=auto;html=1;entryX=0.5;entryY=0;entryDx=0;entryDy=0;" edge="1" parent="WIyWlLk6GJQsqaUBKTNV-1" source="3d2tBKjzDwxo3XAQTUSo-156" target="3d2tBKjzDwxo3XAQTUSo-175">
          <mxGeometry x="-0.4945" relative="1" as="geometry">
            <Array as="points">
              <mxPoint x="170" y="640" />
              <mxPoint x="170" y="640" />
            </Array>
            <mxPoint as="offset" />
          </mxGeometry>
        </mxCell>
        <mxCell id="3d2tBKjzDwxo3XAQTUSo-156" value="" style="whiteSpace=wrap;html=1;rounded=0;shadow=0;comic=0;labelBackgroundColor=none;strokeWidth=1;fillColor=#000000;fontFamily=Verdana;fontSize=12;align=center;rotation=0;" vertex="1" parent="WIyWlLk6GJQsqaUBKTNV-1">
          <mxGeometry x="-10" y="510" width="250" height="10" as="geometry" />
        </mxCell>
        <mxCell id="3d2tBKjzDwxo3XAQTUSo-204" value="" style="edgeStyle=orthogonalEdgeStyle;rounded=0;orthogonalLoop=1;jettySize=auto;html=1;" edge="1" parent="WIyWlLk6GJQsqaUBKTNV-1" source="3d2tBKjzDwxo3XAQTUSo-178" target="3d2tBKjzDwxo3XAQTUSo-181">
          <mxGeometry relative="1" as="geometry" />
        </mxCell>
        <mxCell id="3d2tBKjzDwxo3XAQTUSo-178" value="수거요청" style="whiteSpace=wrap;html=1;rounded=1;" vertex="1" parent="WIyWlLk6GJQsqaUBKTNV-1">
          <mxGeometry x="-410" y="995" width="120" height="60" as="geometry" />
        </mxCell>
        <mxCell id="3d2tBKjzDwxo3XAQTUSo-194" value="" style="edgeStyle=orthogonalEdgeStyle;rounded=0;orthogonalLoop=1;jettySize=auto;html=1;" edge="1" parent="WIyWlLk6GJQsqaUBKTNV-1" source="3d2tBKjzDwxo3XAQTUSo-180" target="rPkNx3lefUZQREJ5seEW-0">
          <mxGeometry relative="1" as="geometry" />
        </mxCell>
        <mxCell id="3d2tBKjzDwxo3XAQTUSo-180" value="수거요청 등록" style="whiteSpace=wrap;html=1;rounded=1;" vertex="1" parent="WIyWlLk6GJQsqaUBKTNV-1">
          <mxGeometry x="-580" y="1205" width="120" height="60" as="geometry" />
        </mxCell>
        <mxCell id="3d2tBKjzDwxo3XAQTUSo-205" style="edgeStyle=orthogonalEdgeStyle;rounded=0;orthogonalLoop=1;jettySize=auto;html=1;entryX=0.5;entryY=0;entryDx=0;entryDy=0;" edge="1" parent="WIyWlLk6GJQsqaUBKTNV-1" source="3d2tBKjzDwxo3XAQTUSo-181" target="3d2tBKjzDwxo3XAQTUSo-180">
          <mxGeometry relative="1" as="geometry">
            <Array as="points">
              <mxPoint x="-350" y="1190" />
              <mxPoint x="-520" y="1190" />
            </Array>
          </mxGeometry>
        </mxCell>
        <mxCell id="3d2tBKjzDwxo3XAQTUSo-207" style="edgeStyle=orthogonalEdgeStyle;rounded=0;orthogonalLoop=1;jettySize=auto;html=1;" edge="1" parent="WIyWlLk6GJQsqaUBKTNV-1" source="3d2tBKjzDwxo3XAQTUSo-181" target="3d2tBKjzDwxo3XAQTUSo-206">
          <mxGeometry relative="1" as="geometry">
            <Array as="points">
              <mxPoint x="-350" y="1190" />
              <mxPoint x="-190" y="1190" />
            </Array>
          </mxGeometry>
        </mxCell>
        <mxCell id="3d2tBKjzDwxo3XAQTUSo-181" value="수거요청 보기&lt;br&gt;(리스트)" style="whiteSpace=wrap;html=1;rounded=1;" vertex="1" parent="WIyWlLk6GJQsqaUBKTNV-1">
          <mxGeometry x="-410" y="1105" width="120" height="60" as="geometry" />
        </mxCell>
        <mxCell id="3d2tBKjzDwxo3XAQTUSo-164" value="해지 사유 선택" style="rounded=1;whiteSpace=wrap;html=1;" vertex="1" parent="WIyWlLk6GJQsqaUBKTNV-1">
          <mxGeometry x="110" y="1095" width="120" height="60" as="geometry" />
        </mxCell>
        <mxCell id="3d2tBKjzDwxo3XAQTUSo-165" value="잔여 회수권 동시 환불 처리" style="rhombus;whiteSpace=wrap;html=1;rounded=1;" vertex="1" parent="WIyWlLk6GJQsqaUBKTNV-1">
          <mxGeometry x="120" y="1205" width="100" height="80" as="geometry" />
        </mxCell>
        <mxCell id="3d2tBKjzDwxo3XAQTUSo-168" style="edgeStyle=orthogonalEdgeStyle;rounded=0;orthogonalLoop=1;jettySize=auto;html=1;exitX=0.5;exitY=1;exitDx=0;exitDy=0;entryX=0.5;entryY=0;entryDx=0;entryDy=0;" edge="1" parent="WIyWlLk6GJQsqaUBKTNV-1" source="3d2tBKjzDwxo3XAQTUSo-164" target="3d2tBKjzDwxo3XAQTUSo-165">
          <mxGeometry relative="1" as="geometry" />
        </mxCell>
        <mxCell id="3d2tBKjzDwxo3XAQTUSo-184" style="edgeStyle=orthogonalEdgeStyle;rounded=0;orthogonalLoop=1;jettySize=auto;html=1;entryX=0.5;entryY=0;entryDx=0;entryDy=0;" edge="1" parent="WIyWlLk6GJQsqaUBKTNV-1" source="3d2tBKjzDwxo3XAQTUSo-166" target="3d2tBKjzDwxo3XAQTUSo-26">
          <mxGeometry relative="1" as="geometry">
            <Array as="points">
              <mxPoint x="290" y="1400" />
              <mxPoint x="170" y="1400" />
            </Array>
          </mxGeometry>
        </mxCell>
        <mxCell id="3d2tBKjzDwxo3XAQTUSo-166" value="정기 결제 해지" style="rounded=1;whiteSpace=wrap;html=1;" vertex="1" parent="WIyWlLk6GJQsqaUBKTNV-1">
          <mxGeometry x="230" y="1310" width="120" height="60" as="geometry" />
        </mxCell>
        <mxCell id="3d2tBKjzDwxo3XAQTUSo-169" value="NO" style="edgeStyle=orthogonalEdgeStyle;rounded=0;orthogonalLoop=1;jettySize=auto;html=1;exitX=1;exitY=0.5;exitDx=0;exitDy=0;strokeColor=#FF3333;" edge="1" parent="WIyWlLk6GJQsqaUBKTNV-1" source="3d2tBKjzDwxo3XAQTUSo-165" target="3d2tBKjzDwxo3XAQTUSo-166">
          <mxGeometry x="-0.4074" relative="1" as="geometry">
            <mxPoint as="offset" />
          </mxGeometry>
        </mxCell>
        <mxCell id="3d2tBKjzDwxo3XAQTUSo-171" style="edgeStyle=orthogonalEdgeStyle;rounded=0;orthogonalLoop=1;jettySize=auto;html=1;exitX=1;exitY=0.5;exitDx=0;exitDy=0;entryX=0;entryY=0.5;entryDx=0;entryDy=0;" edge="1" parent="WIyWlLk6GJQsqaUBKTNV-1" source="3d2tBKjzDwxo3XAQTUSo-167" target="3d2tBKjzDwxo3XAQTUSo-166">
          <mxGeometry relative="1" as="geometry" />
        </mxCell>
        <mxCell id="3d2tBKjzDwxo3XAQTUSo-167" value="잔여 회수권 환불요청" style="rounded=1;whiteSpace=wrap;html=1;" vertex="1" parent="WIyWlLk6GJQsqaUBKTNV-1">
          <mxGeometry x="-10" y="1310" width="120" height="60" as="geometry" />
        </mxCell>
        <mxCell id="3d2tBKjzDwxo3XAQTUSo-170" value="YES" style="edgeStyle=orthogonalEdgeStyle;rounded=0;orthogonalLoop=1;jettySize=auto;html=1;exitX=0;exitY=0.5;exitDx=0;exitDy=0;entryX=0.5;entryY=0;entryDx=0;entryDy=0;strokeColor=#FF3333;" edge="1" parent="WIyWlLk6GJQsqaUBKTNV-1" source="3d2tBKjzDwxo3XAQTUSo-165" target="3d2tBKjzDwxo3XAQTUSo-167">
          <mxGeometry x="-0.5552" relative="1" as="geometry">
            <mxPoint x="-1" as="offset" />
          </mxGeometry>
        </mxCell>
        <mxCell id="3d2tBKjzDwxo3XAQTUSo-176" style="edgeStyle=orthogonalEdgeStyle;rounded=0;orthogonalLoop=1;jettySize=auto;html=1;exitX=0.5;exitY=1;exitDx=0;exitDy=0;entryX=0.5;entryY=0;entryDx=0;entryDy=0;" edge="1" parent="WIyWlLk6GJQsqaUBKTNV-1" source="3d2tBKjzDwxo3XAQTUSo-175" target="3d2tBKjzDwxo3XAQTUSo-164">
          <mxGeometry relative="1" as="geometry" />
        </mxCell>
        <mxCell id="3d2tBKjzDwxo3XAQTUSo-175" value="해지 요청" style="rounded=1;whiteSpace=wrap;html=1;" vertex="1" parent="WIyWlLk6GJQsqaUBKTNV-1">
          <mxGeometry x="110" y="995" width="120" height="60" as="geometry" />
        </mxCell>
        <mxCell id="3d2tBKjzDwxo3XAQTUSo-198" style="edgeStyle=orthogonalEdgeStyle;rounded=0;orthogonalLoop=1;jettySize=auto;html=1;entryX=0.5;entryY=0;entryDx=0;entryDy=0;" edge="1" parent="WIyWlLk6GJQsqaUBKTNV-1" source="rPkNx3lefUZQREJ5seEW-0" target="rPkNx3lefUZQREJ5seEW-2">
          <mxGeometry relative="1" as="geometry" />
        </mxCell>
        <mxCell id="rPkNx3lefUZQREJ5seEW-0" value="수거일 지정" style="rounded=1;whiteSpace=wrap;html=1;" vertex="1" parent="WIyWlLk6GJQsqaUBKTNV-1">
          <mxGeometry x="-580" y="1350" width="120" height="60" as="geometry" />
        </mxCell>
        <mxCell id="3d2tBKjzDwxo3XAQTUSo-201" style="edgeStyle=orthogonalEdgeStyle;rounded=0;orthogonalLoop=1;jettySize=auto;html=1;" edge="1" parent="WIyWlLk6GJQsqaUBKTNV-1" source="rPkNx3lefUZQREJ5seEW-2" target="rPkNx3lefUZQREJ5seEW-6">
          <mxGeometry relative="1" as="geometry">
            <Array as="points">
              <mxPoint x="-520" y="1590" />
              <mxPoint x="-350" y="1590" />
            </Array>
          </mxGeometry>
        </mxCell>
        <mxCell id="rPkNx3lefUZQREJ5seEW-2" value="수거이용 동의 확인" style="whiteSpace=wrap;html=1;rounded=1;" vertex="1" parent="WIyWlLk6GJQsqaUBKTNV-1">
          <mxGeometry x="-580" y="1500" width="120" height="60" as="geometry" />
        </mxCell>
        <mxCell id="3d2tBKjzDwxo3XAQTUSo-193" style="edgeStyle=orthogonalEdgeStyle;rounded=0;orthogonalLoop=1;jettySize=auto;html=1;entryX=0;entryY=0.5;entryDx=0;entryDy=0;exitX=0;exitY=0.5;exitDx=0;exitDy=0;" edge="1" parent="WIyWlLk6GJQsqaUBKTNV-1" source="rPkNx3lefUZQREJ5seEW-6" target="hfUMV4JjxT8LaMkukJHo-1">
          <mxGeometry relative="1" as="geometry">
            <mxPoint x="-389.68626966596867" y="1645.06" as="sourcePoint" />
            <mxPoint x="690" y="150.05999999999955" as="targetPoint" />
            <Array as="points">
              <mxPoint x="-700" y="1670" />
              <mxPoint x="-700" y="120" />
            </Array>
          </mxGeometry>
        </mxCell>
        <mxCell id="rPkNx3lefUZQREJ5seEW-6" value="수거신청 완료" style="ellipse;whiteSpace=wrap;html=1;aspect=fixed;" vertex="1" parent="WIyWlLk6GJQsqaUBKTNV-1">
          <mxGeometry x="-390.5" y="1640" width="81" height="80" as="geometry" />
        </mxCell>
        <mxCell id="3d2tBKjzDwxo3XAQTUSo-209" value="YES" style="edgeStyle=orthogonalEdgeStyle;rounded=0;orthogonalLoop=1;jettySize=auto;html=1;entryX=1;entryY=0.5;entryDx=0;entryDy=0;strokeColor=#FF3333;" edge="1" parent="WIyWlLk6GJQsqaUBKTNV-1" source="3d2tBKjzDwxo3XAQTUSo-195" target="rPkNx3lefUZQREJ5seEW-0">
          <mxGeometry x="-0.7273" relative="1" as="geometry">
            <mxPoint x="-1" as="offset" />
          </mxGeometry>
        </mxCell>
        <mxCell id="3d2tBKjzDwxo3XAQTUSo-210" value="NO" style="edgeStyle=orthogonalEdgeStyle;rounded=0;orthogonalLoop=1;jettySize=auto;html=1;entryX=1;entryY=0.5;entryDx=0;entryDy=0;strokeColor=#FF3333;" edge="1" parent="WIyWlLk6GJQsqaUBKTNV-1" source="3d2tBKjzDwxo3XAQTUSo-195" target="3d2tBKjzDwxo3XAQTUSo-181">
          <mxGeometry x="-0.8788" relative="1" as="geometry">
            <Array as="points">
              <mxPoint x="-90" y="1380" />
              <mxPoint x="-90" y="1135" />
            </Array>
            <mxPoint x="-1" as="offset" />
          </mxGeometry>
        </mxCell>
        <mxCell id="3d2tBKjzDwxo3XAQTUSo-195" value="수거일 변경 &lt;br&gt;가능 여부" style="rhombus;whiteSpace=wrap;html=1;rounded=1;" vertex="1" parent="WIyWlLk6GJQsqaUBKTNV-1">
          <mxGeometry x="-240" y="1340" width="100" height="80" as="geometry" />
        </mxCell>
        <mxCell id="rPkNx3lefUZQREJ5seEW-13" value="" style="edgeStyle=orthogonalEdgeStyle;rounded=0;orthogonalLoop=1;jettySize=auto;html=1;entryX=0.5;entryY=0;entryDx=0;entryDy=0;" edge="1" parent="WIyWlLk6GJQsqaUBKTNV-1" source="rPkNx3lefUZQREJ5seEW-14" target="rPkNx3lefUZQREJ5seEW-21">
          <mxGeometry relative="1" as="geometry">
            <mxPoint x="-1690" y="2125" as="targetPoint" />
            <Array as="points" />
          </mxGeometry>
        </mxCell>
        <mxCell id="rPkNx3lefUZQREJ5seEW-14" value="수거지 명단 확인&lt;br&gt;엑셀 다운로드" style="shape=document;whiteSpace=wrap;html=1;boundedLbl=1;" vertex="1" parent="WIyWlLk6GJQsqaUBKTNV-1">
          <mxGeometry x="-1540" y="1955" width="120" height="80" as="geometry" />
        </mxCell>
        <mxCell id="rPkNx3lefUZQREJ5seEW-15" value="NO" style="text;html=1;strokeColor=default;fillColor=none;align=center;verticalAlign=middle;whiteSpace=wrap;rounded=0;" vertex="1" parent="WIyWlLk6GJQsqaUBKTNV-1">
          <mxGeometry x="-1870" y="2040" width="60" height="30" as="geometry" />
        </mxCell>
        <mxCell id="rPkNx3lefUZQREJ5seEW-16" value="복구" style="ellipse;whiteSpace=wrap;html=1;" vertex="1" parent="WIyWlLk6GJQsqaUBKTNV-1">
          <mxGeometry x="-2100" y="1955" width="80" height="80" as="geometry" />
        </mxCell>
        <mxCell id="rPkNx3lefUZQREJ5seEW-17" value="YES" style="text;html=1;strokeColor=default;fillColor=none;align=center;verticalAlign=middle;whiteSpace=wrap;rounded=0;" vertex="1" parent="WIyWlLk6GJQsqaUBKTNV-1">
          <mxGeometry x="-1990" y="1940" width="60" height="30" as="geometry" />
        </mxCell>
        <mxCell id="rPkNx3lefUZQREJ5seEW-18" style="edgeStyle=orthogonalEdgeStyle;rounded=0;orthogonalLoop=1;jettySize=auto;html=1;entryX=1;entryY=0.5;entryDx=0;entryDy=0;strokeColor=#FF3333;" edge="1" parent="WIyWlLk6GJQsqaUBKTNV-1" source="rPkNx3lefUZQREJ5seEW-20" target="rPkNx3lefUZQREJ5seEW-16">
          <mxGeometry relative="1" as="geometry" />
        </mxCell>
        <mxCell id="rPkNx3lefUZQREJ5seEW-19" style="edgeStyle=orthogonalEdgeStyle;rounded=0;orthogonalLoop=1;jettySize=auto;html=1;entryX=0;entryY=0.5;entryDx=0;entryDy=0;strokeColor=#FF3333;" edge="1" parent="WIyWlLk6GJQsqaUBKTNV-1" source="rPkNx3lefUZQREJ5seEW-20" target="rPkNx3lefUZQREJ5seEW-25">
          <mxGeometry relative="1" as="geometry">
            <Array as="points">
              <mxPoint x="-1882" y="2165" />
            </Array>
          </mxGeometry>
        </mxCell>
        <mxCell id="rPkNx3lefUZQREJ5seEW-20" value="복구 여부" style="rhombus;whiteSpace=wrap;html=1;" vertex="1" parent="WIyWlLk6GJQsqaUBKTNV-1">
          <mxGeometry x="-1930" y="1955" width="96" height="80" as="geometry" />
        </mxCell>
        <mxCell id="rPkNx3lefUZQREJ5seEW-21" value="수거자 명단&lt;br&gt;전달" style="ellipse;whiteSpace=wrap;html=1;aspect=fixed;" vertex="1" parent="WIyWlLk6GJQsqaUBKTNV-1">
          <mxGeometry x="-1520" y="2140" width="80" height="80" as="geometry" />
        </mxCell>
        <mxCell id="rPkNx3lefUZQREJ5seEW-22" value="" style="edgeStyle=orthogonalEdgeStyle;rounded=0;orthogonalLoop=1;jettySize=auto;html=1;strokeColor=#FF3333;" edge="1" parent="WIyWlLk6GJQsqaUBKTNV-1" source="rPkNx3lefUZQREJ5seEW-24">
          <mxGeometry relative="1" as="geometry">
            <mxPoint x="-1680" y="2125" as="targetPoint" />
          </mxGeometry>
        </mxCell>
        <mxCell id="rPkNx3lefUZQREJ5seEW-23" style="edgeStyle=orthogonalEdgeStyle;rounded=0;orthogonalLoop=1;jettySize=auto;html=1;entryX=1;entryY=0.5;entryDx=0;entryDy=0;strokeColor=#FF3333;" edge="1" parent="WIyWlLk6GJQsqaUBKTNV-1" source="rPkNx3lefUZQREJ5seEW-24" target="rPkNx3lefUZQREJ5seEW-20">
          <mxGeometry relative="1" as="geometry" />
        </mxCell>
        <mxCell id="rPkNx3lefUZQREJ5seEW-24" value="수거 상태 변경" style="rhombus;whiteSpace=wrap;html=1;" vertex="1" parent="WIyWlLk6GJQsqaUBKTNV-1">
          <mxGeometry x="-1728" y="1955" width="96" height="80" as="geometry" />
        </mxCell>
        <mxCell id="rPkNx3lefUZQREJ5seEW-25" value="수거 확인&amp;nbsp;&lt;br&gt;체크" style="ellipse;whiteSpace=wrap;html=1;rounded=1;" vertex="1" parent="WIyWlLk6GJQsqaUBKTNV-1">
          <mxGeometry x="-1720" y="2125" width="80" height="80" as="geometry" />
        </mxCell>
        <mxCell id="rPkNx3lefUZQREJ5seEW-26" value="복구" style="text;html=1;strokeColor=default;fillColor=none;align=center;verticalAlign=middle;whiteSpace=wrap;rounded=0;" vertex="1" parent="WIyWlLk6GJQsqaUBKTNV-1">
          <mxGeometry x="-1780" y="1955" width="60" height="30" as="geometry" />
        </mxCell>
        <mxCell id="rPkNx3lefUZQREJ5seEW-27" value="확인" style="text;html=1;strokeColor=default;fillColor=none;align=center;verticalAlign=middle;whiteSpace=wrap;rounded=0;" vertex="1" parent="WIyWlLk6GJQsqaUBKTNV-1">
          <mxGeometry x="-1660" y="2060" width="60" height="30" as="geometry" />
        </mxCell>
        <mxCell id="3d2tBKjzDwxo3XAQTUSo-224" style="edgeStyle=orthogonalEdgeStyle;rounded=0;orthogonalLoop=1;jettySize=auto;html=1;" edge="1" parent="WIyWlLk6GJQsqaUBKTNV-1" source="rPkNx3lefUZQREJ5seEW-28" target="3d2tBKjzDwxo3XAQTUSo-221">
          <mxGeometry relative="1" as="geometry" />
        </mxCell>
        <mxCell id="rPkNx3lefUZQREJ5seEW-28" value="수거 복구" style="rounded=1;whiteSpace=wrap;html=1;" vertex="1" parent="WIyWlLk6GJQsqaUBKTNV-1">
          <mxGeometry x="1800" y="1330" width="120" height="60" as="geometry" />
        </mxCell>
        <mxCell id="3d2tBKjzDwxo3XAQTUSo-208" style="edgeStyle=orthogonalEdgeStyle;rounded=0;orthogonalLoop=1;jettySize=auto;html=1;" edge="1" parent="WIyWlLk6GJQsqaUBKTNV-1" source="3d2tBKjzDwxo3XAQTUSo-206" target="3d2tBKjzDwxo3XAQTUSo-195">
          <mxGeometry relative="1" as="geometry" />
        </mxCell>
        <mxCell id="3d2tBKjzDwxo3XAQTUSo-206" value="수거요청 수정" style="whiteSpace=wrap;html=1;rounded=1;" vertex="1" parent="WIyWlLk6GJQsqaUBKTNV-1">
          <mxGeometry x="-250" y="1205" width="120" height="60" as="geometry" />
        </mxCell>
        <mxCell id="3d2tBKjzDwxo3XAQTUSo-227" style="edgeStyle=orthogonalEdgeStyle;rounded=0;orthogonalLoop=1;jettySize=auto;html=1;entryX=0.5;entryY=0;entryDx=0;entryDy=0;" edge="1" parent="WIyWlLk6GJQsqaUBKTNV-1" source="rPkNx3lefUZQREJ5seEW-38" target="3d2tBKjzDwxo3XAQTUSo-222">
          <mxGeometry relative="1" as="geometry" />
        </mxCell>
        <mxCell id="rPkNx3lefUZQREJ5seEW-38" value="수거권 상태 변경" style="rounded=1;whiteSpace=wrap;html=1;" vertex="1" parent="WIyWlLk6GJQsqaUBKTNV-1">
          <mxGeometry x="1370" y="1330" width="120" height="60" as="geometry" />
        </mxCell>
        <mxCell id="3d2tBKjzDwxo3XAQTUSo-214" value="YES" style="edgeStyle=orthogonalEdgeStyle;rounded=0;orthogonalLoop=1;jettySize=auto;html=1;strokeColor=#FF3333;" edge="1" parent="WIyWlLk6GJQsqaUBKTNV-1" source="3d2tBKjzDwxo3XAQTUSo-212" target="3d2tBKjzDwxo3XAQTUSo-213">
          <mxGeometry x="-0.4745" relative="1" as="geometry">
            <mxPoint as="offset" />
          </mxGeometry>
        </mxCell>
        <mxCell id="3d2tBKjzDwxo3XAQTUSo-240" value="NO" style="edgeStyle=orthogonalEdgeStyle;rounded=0;orthogonalLoop=1;jettySize=auto;html=1;entryX=1;entryY=1;entryDx=0;entryDy=0;strokeColor=#FF3333;" edge="1" parent="WIyWlLk6GJQsqaUBKTNV-1" source="3d2tBKjzDwxo3XAQTUSo-212" target="hfUMV4JjxT8LaMkukJHo-60">
          <mxGeometry x="-0.798" relative="1" as="geometry">
            <Array as="points">
              <mxPoint x="1150" y="1540" />
              <mxPoint x="1150" y="1090" />
            </Array>
            <mxPoint as="offset" />
          </mxGeometry>
        </mxCell>
        <mxCell id="3d2tBKjzDwxo3XAQTUSo-212" value="결제 진행" style="rhombus;whiteSpace=wrap;html=1;rounded=1;" vertex="1" parent="WIyWlLk6GJQsqaUBKTNV-1">
          <mxGeometry x="952" y="1500" width="100" height="80" as="geometry" />
        </mxCell>
        <mxCell id="3d2tBKjzDwxo3XAQTUSo-213" value="결제 완료" style="ellipse;whiteSpace=wrap;html=1;rounded=1;" vertex="1" parent="WIyWlLk6GJQsqaUBKTNV-1">
          <mxGeometry x="860" y="1630" width="80" height="80" as="geometry" />
        </mxCell>
        <mxCell id="3d2tBKjzDwxo3XAQTUSo-231" value="타당하지 않음" style="edgeStyle=orthogonalEdgeStyle;rounded=0;orthogonalLoop=1;jettySize=auto;html=1;entryX=1;entryY=0.5;entryDx=0;entryDy=0;strokeColor=#FF3333;" edge="1" parent="WIyWlLk6GJQsqaUBKTNV-1" source="3d2tBKjzDwxo3XAQTUSo-221" target="3d2tBKjzDwxo3XAQTUSo-226">
          <mxGeometry relative="1" as="geometry">
            <Array as="points">
              <mxPoint x="1640" y="1560" />
              <mxPoint x="1640" y="1670" />
            </Array>
          </mxGeometry>
        </mxCell>
        <mxCell id="3d2tBKjzDwxo3XAQTUSo-236" value="타당함" style="edgeStyle=orthogonalEdgeStyle;rounded=0;orthogonalLoop=1;jettySize=auto;html=1;entryX=0.5;entryY=0;entryDx=0;entryDy=0;strokeColor=#FF3333;" edge="1" parent="WIyWlLk6GJQsqaUBKTNV-1" source="3d2tBKjzDwxo3XAQTUSo-221" target="3d2tBKjzDwxo3XAQTUSo-225">
          <mxGeometry x="0.5556" relative="1" as="geometry">
            <mxPoint as="offset" />
          </mxGeometry>
        </mxCell>
        <mxCell id="3d2tBKjzDwxo3XAQTUSo-221" value="미수거 사유 확인" style="rhombus;whiteSpace=wrap;html=1;rounded=1;" vertex="1" parent="WIyWlLk6GJQsqaUBKTNV-1">
          <mxGeometry x="1810" y="1510" width="100" height="80" as="geometry" />
        </mxCell>
        <mxCell id="3d2tBKjzDwxo3XAQTUSo-229" value="YES" style="edgeStyle=orthogonalEdgeStyle;rounded=0;orthogonalLoop=1;jettySize=auto;html=1;entryX=0;entryY=0.5;entryDx=0;entryDy=0;strokeColor=#FF3333;" edge="1" parent="WIyWlLk6GJQsqaUBKTNV-1" source="3d2tBKjzDwxo3XAQTUSo-222" target="3d2tBKjzDwxo3XAQTUSo-226">
          <mxGeometry relative="1" as="geometry">
            <Array as="points">
              <mxPoint x="1360" y="1550" />
              <mxPoint x="1360" y="1670" />
            </Array>
          </mxGeometry>
        </mxCell>
        <mxCell id="3d2tBKjzDwxo3XAQTUSo-234" value="NO" style="edgeStyle=orthogonalEdgeStyle;rounded=0;orthogonalLoop=1;jettySize=auto;html=1;entryX=0;entryY=0.5;entryDx=0;entryDy=0;strokeColor=#FF3333;" edge="1" parent="WIyWlLk6GJQsqaUBKTNV-1" source="3d2tBKjzDwxo3XAQTUSo-222" target="3d2tBKjzDwxo3XAQTUSo-221">
          <mxGeometry relative="1" as="geometry" />
        </mxCell>
        <mxCell id="3d2tBKjzDwxo3XAQTUSo-222" value="수거 여부" style="rhombus;whiteSpace=wrap;html=1;rounded=1;" vertex="1" parent="WIyWlLk6GJQsqaUBKTNV-1">
          <mxGeometry x="1380" y="1510" width="100" height="80" as="geometry" />
        </mxCell>
        <mxCell id="3d2tBKjzDwxo3XAQTUSo-225" value="복구" style="ellipse;whiteSpace=wrap;html=1;aspect=fixed;" vertex="1" parent="WIyWlLk6GJQsqaUBKTNV-1">
          <mxGeometry x="1970" y="1630" width="80" height="80" as="geometry" />
        </mxCell>
        <mxCell id="3d2tBKjzDwxo3XAQTUSo-226" value="수거 확인" style="ellipse;whiteSpace=wrap;html=1;aspect=fixed;" vertex="1" parent="WIyWlLk6GJQsqaUBKTNV-1">
          <mxGeometry x="1390" y="1630" width="80" height="80" as="geometry" />
        </mxCell>
        <mxCell id="3d2tBKjzDwxo3XAQTUSo-244" style="edgeStyle=orthogonalEdgeStyle;rounded=0;orthogonalLoop=1;jettySize=auto;html=1;entryX=0.5;entryY=0;entryDx=0;entryDy=0;" edge="1" parent="WIyWlLk6GJQsqaUBKTNV-1" source="hfUMV4JjxT8LaMkukJHo-368" target="3d2tBKjzDwxo3XAQTUSo-242">
          <mxGeometry relative="1" as="geometry" />
        </mxCell>
        <mxCell id="hfUMV4JjxT8LaMkukJHo-368" value="해당 사용자&lt;br&gt;수거 체크" style="rounded=1;whiteSpace=wrap;html=1;fillColor=#dae8fc;strokeColor=#6c8ebf;" vertex="1" parent="WIyWlLk6GJQsqaUBKTNV-1">
          <mxGeometry x="3146" y="995" width="120" height="60" as="geometry" />
        </mxCell>
        <mxCell id="3d2tBKjzDwxo3XAQTUSo-242" value="관리자에게 &lt;br&gt;수거 명단 전달" style="ellipse;whiteSpace=wrap;html=1;aspect=fixed;fillColor=#dae8fc;strokeColor=#6c8ebf;" vertex="1" parent="WIyWlLk6GJQsqaUBKTNV-1">
          <mxGeometry x="3166" y="1630" width="80" height="80" as="geometry" />
        </mxCell>
        <mxCell id="3d2tBKjzDwxo3XAQTUSo-248" style="edgeStyle=orthogonalEdgeStyle;rounded=0;orthogonalLoop=1;jettySize=auto;html=1;" edge="1" parent="WIyWlLk6GJQsqaUBKTNV-1" source="3d2tBKjzDwxo3XAQTUSo-245" target="hfUMV4JjxT8LaMkukJHo-52">
          <mxGeometry relative="1" as="geometry">
            <Array as="points">
              <mxPoint x="1000" y="550" />
              <mxPoint x="1000" y="550" />
            </Array>
          </mxGeometry>
        </mxCell>
        <mxCell id="3d2tBKjzDwxo3XAQTUSo-258" style="edgeStyle=orthogonalEdgeStyle;rounded=0;orthogonalLoop=1;jettySize=auto;html=1;exitX=0.25;exitY=1;exitDx=0;exitDy=0;entryX=0.5;entryY=0;entryDx=0;entryDy=0;" edge="1" parent="WIyWlLk6GJQsqaUBKTNV-1" source="3d2tBKjzDwxo3XAQTUSo-245" target="3d2tBKjzDwxo3XAQTUSo-257">
          <mxGeometry relative="1" as="geometry" />
        </mxCell>
        <mxCell id="3d2tBKjzDwxo3XAQTUSo-245" value="" style="whiteSpace=wrap;html=1;rounded=0;shadow=0;comic=0;labelBackgroundColor=none;strokeWidth=1;fillColor=#000000;fontFamily=Verdana;fontSize=12;align=center;rotation=0;" vertex="1" parent="WIyWlLk6GJQsqaUBKTNV-1">
          <mxGeometry x="780" y="510" width="250" height="10" as="geometry" />
        </mxCell>
        <mxCell id="3d2tBKjzDwxo3XAQTUSo-247" value="잔여 수거권 없음" style="edgeStyle=orthogonalEdgeStyle;rounded=0;orthogonalLoop=1;jettySize=auto;html=1;entryX=0.564;entryY=0.269;entryDx=0;entryDy=0;entryPerimeter=0;" edge="1" parent="WIyWlLk6GJQsqaUBKTNV-1" source="3d2tBKjzDwxo3XAQTUSo-152" target="3d2tBKjzDwxo3XAQTUSo-245">
          <mxGeometry relative="1" as="geometry">
            <Array as="points">
              <mxPoint x="921" y="270" />
            </Array>
          </mxGeometry>
        </mxCell>
        <mxCell id="3d2tBKjzDwxo3XAQTUSo-259" style="edgeStyle=orthogonalEdgeStyle;rounded=0;orthogonalLoop=1;jettySize=auto;html=1;entryX=1;entryY=0.5;entryDx=0;entryDy=0;" edge="1" parent="WIyWlLk6GJQsqaUBKTNV-1" source="3d2tBKjzDwxo3XAQTUSo-257" target="3d2tBKjzDwxo3XAQTUSo-175">
          <mxGeometry relative="1" as="geometry" />
        </mxCell>
        <mxCell id="3d2tBKjzDwxo3XAQTUSo-261" value="" style="edgeStyle=orthogonalEdgeStyle;rounded=0;orthogonalLoop=1;jettySize=auto;html=1;" edge="1" parent="WIyWlLk6GJQsqaUBKTNV-1" source="3d2tBKjzDwxo3XAQTUSo-257" target="3d2tBKjzDwxo3XAQTUSo-260">
          <mxGeometry relative="1" as="geometry" />
        </mxCell>
        <mxCell id="3d2tBKjzDwxo3XAQTUSo-257" value="내역 확인" style="rounded=1;whiteSpace=wrap;html=1;" vertex="1" parent="WIyWlLk6GJQsqaUBKTNV-1">
          <mxGeometry x="690" y="760" width="120" height="60" as="geometry" />
        </mxCell>
        <mxCell id="3d2tBKjzDwxo3XAQTUSo-260" value="재구매 대기" style="ellipse;whiteSpace=wrap;html=1;rounded=1;" vertex="1" parent="WIyWlLk6GJQsqaUBKTNV-1">
          <mxGeometry x="710" y="1635" width="80" height="80" as="geometry" />
        </mxCell>
      </root>
    </mxGraphModel>
  </diagram>
</mxfile>
